<?xml version="1.0" encoding="UTF-8" standalone="no"?>
<!-- Created with Inkscape (http://www.inkscape.org/) -->

<svg
   version="1.1"
   id="svg2"
   width="793.70667"
   height="1122.52"
   viewBox="0 0 793.70667 1122.52"
   sodipodi:docname="a-04.eps"
   xmlns:inkscape="http://www.inkscape.org/namespaces/inkscape"
   xmlns:sodipodi="http://sodipodi.sourceforge.net/DTD/sodipodi-0.dtd"
   xmlns="http://www.w3.org/2000/svg"
   xmlns:svg="http://www.w3.org/2000/svg">
  <defs
     id="defs6" />
  <sodipodi:namedview
     id="namedview4"
     pagecolor="#ffffff"
     bordercolor="#000000"
     borderopacity="0.25"
     inkscape:showpageshadow="2"
     inkscape:pageopacity="0.0"
     inkscape:pagecheckerboard="0"
     inkscape:deskcolor="#d1d1d1" />
  <g
     id="g8"
     inkscape:groupmode="layer"
     inkscape:label="ink_ext_XXXXXX"
     transform="matrix(1.3333333,0,0,-1.3333333,0,1122.52)">
    <g
       id="g10"
       transform="scale(0.1)">
      <path
         d="M 850.41,5436.59 V 2982.31 L 2976.4,1755.18 5102.38,2982.31 V 5436.59 L 2976.4,6663.72 Z"
         style="fill:none;stroke:#100f0d;stroke-width:50;stroke-linecap:butt;stroke-linejoin:miter;stroke-miterlimit:10;stroke-dasharray:none;stroke-opacity:1"
         id="path12" />
      <path
         d="m 2771.18,4956.33 c 9,9.63 17.41,17.99 25.05,27 8.31,9.78 8.04,12.82 -0.45,22.28 -4.05,4.52 -8.35,8.86 -12.85,12.95 -15.5,14.08 -32.16,27.21 -37.23,51.26 -1.33,-3.24 -1.89,-4.24 -2.16,-5.3 -4.55,-17.74 0.54,-33.83 9.01,-49.12 10.06,-18.16 18.15,-36.86 18.63,-59.07 z m 276.95,282.78 c 26.7,33.16 17.57,74.88 -20,91.09 -22.87,9.87 -41.67,23.61 -53.35,49.45 -4.57,-13 -9.26,-23.58 -11.99,-34.64 -6.43,-26.13 0.5,-38.66 24.76,-49.58 10.2,-4.59 20.22,-9.95 29.43,-16.27 14.36,-9.86 23.77,-24.15 31.15,-40.05 z m -302.12,-437.88 c -4.6,-4.08 -7.43,-6.15 -9.72,-8.7 -18.3,-20.46 -33.35,-43.09 -44.41,-68.21 -2.88,-6.54 -5.09,-13.7 -5.88,-20.77 -4.42,-39.18 10.25,-71.47 37.41,-98.71 37.86,-37.97 84,-61.08 135.33,-74.84 36.87,-9.89 74.58,-13.44 112.51,-15.68 17.34,-1.03 34.7,-3.77 51.98,-3.33 34.6,0.88 68.63,6.46 101.06,19.18 65.42,25.66 114.78,68.11 139.06,135.82 7.52,20.96 12.93,42.68 20.41,63.66 6.28,17.61 2.05,33.04 -7.02,47.93 -1.6,2.62 -5.13,4.07 -7.77,6.06 -1.59,-3.17 -4.03,-6.2 -4.59,-9.54 -1.51,-8.82 -1.16,-18.05 -3.39,-26.64 -15.07,-57.94 -53.33,-94.93 -107.81,-116.13 -7.79,-3.04 -17.93,-2.62 -26.38,-0.87 -23.99,4.99 -40.63,20.08 -51.25,41.88 -9.38,19.23 -3.85,35.9 7.43,52.84 11.2,16.82 8.59,34.37 -7.15,47.57 -10.91,9.15 -23.76,16.57 -36.79,22.47 -12.3,5.57 -22.6,12.82 -30.88,23.17 -8.34,10.4 -16.25,21.16 -24.67,31.5 -11.59,14.25 -18.28,14.06 -29.02,-0.71 -3.04,-4.2 -5.89,-8.72 -7.81,-13.51 -4.83,-12.07 -9.97,-24.13 -13.39,-36.63 -10.32,-37.68 -19.29,-75.73 -29.91,-113.32 -7.77,-27.54 -34.73,-43.7 -63.28,-40.49 -27.85,3.13 -48.47,16.77 -58.43,42.84 -10.1,26.43 -17.81,53.76 -26.38,80.76 -3.19,10.09 -5.84,20.35 -9.26,32.4 z m -122.94,-18.94 c 4.84,23.97 20.45,41.41 34.95,59.92 11.36,14.5 21.29,30.45 29.7,46.87 14.84,28.97 15.18,59.2 2.22,89.12 -6.34,14.61 -13.07,29.14 -20.87,43 -32.83,58.44 -32.49,117.62 -5.68,177.93 9.37,21.08 19.65,40.96 37.93,56.29 11.01,9.23 20,20.97 29.32,32.07 23.16,27.58 35.33,59.48 37.18,95.53 0.54,10.32 3,20.54 4.81,32.3 18.86,-10.59 29.47,-25.06 33.21,-44.62 4.32,-22.63 -0.64,-44.47 -6.21,-66.14 -7.28,-28.34 -15.62,-56.43 -22.27,-84.91 -2.73,-11.7 -3.08,-24.17 -2.98,-36.28 0.19,-23.34 10.35,-41.96 27.75,-57.68 22.13,-19.99 44.04,-40.39 64.24,-62.29 9.97,-10.8 17.14,-24.78 23.34,-38.34 8.67,-18.98 6.25,-38.27 -5.49,-55.49 -6.98,-10.24 -15.47,-19.51 -23.73,-28.81 -10.39,-11.71 -21.86,-22.5 -31.78,-34.59 -21.4,-26.07 -25.93,-55.41 -12.51,-86.37 6.95,-16.03 16.35,-31 24.64,-46.45 1.04,0.28 2.07,0.56 3.11,0.84 2.43,9.61 4.86,19.21 7.28,28.82 10.48,41.67 23.08,82.6 41.5,121.58 17.62,37.28 40.19,71.13 68.77,100.94 22.66,23.64 39.91,50.5 47.15,82.88 8.61,38.52 -2.88,70.32 -34.66,93.37 -13.2,9.57 -28.52,16.6 -43.6,23.09 -22.1,9.51 -42.94,20.59 -59.44,38.42 -30.18,32.63 -37.23,71.79 -30.97,114.22 6.99,47.4 27.12,89.8 52.71,129.56 21.01,32.67 44.01,64.06 65.78,96.25 13.68,20.26 26.93,41.19 29.45,66.09 1.74,17.13 0.33,34.57 0.33,52.95 16.8,-15.71 28.59,-33.73 33.45,-55.91 5.71,-26.03 1.4,-51.38 -6.18,-76.32 -7.75,-25.51 -16.44,-50.73 -23.77,-76.34 -2.75,-9.63 -3.82,-20.01 -3.94,-30.06 -0.22,-21.35 8.28,-39.52 25.76,-51.66 12.95,-8.99 27.04,-17.57 41.9,-22.44 79.4,-26.02 108.2,-101.32 102.69,-165.28 -5.1,-59.04 -31.51,-106.41 -77.78,-143.19 -26.76,-21.27 -48.34,-46.85 -60.92,-79.05 -16.14,-41.34 -4.32,-75.61 33.88,-98.22 8.68,-5.15 18.15,-9.04 27.42,-13.11 27.56,-12.06 50.84,-29.33 65.81,-55.91 17.28,-30.68 17.69,-61.24 -3.08,-90.86 -0.63,-0.9 -1.15,-1.86 -1.99,-3.24 14.73,6.24 36.71,27.35 46.52,47.87 6.13,12.84 11.36,27.08 12.65,41.08 2.72,29.59 -12.21,50.92 -37.3,65.59 -24.79,14.5 -39.12,35.8 -41.35,64.62 -1.51,19.61 3.45,37.99 12.41,55.3 11.89,22.96 29.32,40.89 50.66,55.2 2.89,1.94 5.87,3.74 8.83,5.57 41.89,25.95 57.16,59.63 46.42,107.97 -5.89,26.52 -14.72,52.41 -22.54,78.48 -7.84,26.2 -15.19,52.44 -13.02,80.22 1.67,21.49 9.79,40.11 26.09,55.31 -1.91,-11.52 -3.73,-23.06 -5.77,-34.57 -4.35,-24.46 1.6,-46.62 15.05,-67.02 19.59,-29.74 46.37,-52.45 73.26,-75.12 14.62,-12.34 29.02,-25 42.59,-38.47 7.52,-7.47 13.79,-16.47 19.41,-25.54 13.77,-22.17 16.6,-46.17 5.41,-69.81 -8.36,-17.69 -18.87,-34.59 -30.19,-50.58 -11.7,-16.53 -25.39,-31.68 -38.48,-47.2 -27.8,-32.99 -30.16,-71.57 -6.07,-107.4 3.86,-5.75 8.1,-11.4 12.96,-16.32 29.84,-30.18 38.68,-66.38 28.41,-106.61 -14.25,-55.81 -31.91,-110.24 -70.78,-155.13 -56.66,-65.43 -128.44,-101.7 -213.71,-111.85 -18.87,-2.25 -38.09,-1.39 -57.13,-2.24 -6.58,-0.3 -13.11,-1.64 -19.71,-2.18 -4.08,-0.33 -8.22,-0.06 -12.42,1.4 1.49,0.6 2.96,1.19 6.6,2.66 -4.08,0 -5.97,-0.05 -7.86,0 -73.42,1.95 -143.97,16.16 -210.02,49.35 -35.88,18.02 -67.97,41.17 -93.7,72.37 -23.04,27.94 -38.1,59.35 -41.04,96.02 -0.72,8.87 -3.03,17.62 -4.61,26.43 0,8.7 0,17.41 0,26.12"
         style="fill:#100f0d;fill-opacity:1;fill-rule:nonzero;stroke:none"
         id="path14" />
      <path
         d="m 2746.01,4801.23 c 3.42,-12.05 6.07,-22.31 9.26,-32.4 8.57,-27 16.28,-54.33 26.38,-80.76 9.96,-26.07 30.58,-39.71 58.43,-42.84 28.55,-3.21 55.51,12.95 63.28,40.49 10.62,37.59 19.59,75.64 29.91,113.32 3.42,12.5 8.56,24.56 13.39,36.63 1.92,4.79 4.77,9.31 7.81,13.51 10.74,14.77 17.43,14.96 29.02,0.71 8.42,-10.34 16.33,-21.1 24.67,-31.5 8.28,-10.35 18.58,-17.6 30.88,-23.17 13.03,-5.9 25.88,-13.32 36.79,-22.47 15.74,-13.2 18.35,-30.75 7.15,-47.57 -11.28,-16.94 -16.81,-33.61 -7.43,-52.84 10.62,-21.8 27.26,-36.89 51.25,-41.88 8.45,-1.75 18.59,-2.17 26.38,0.87 54.48,21.2 92.74,58.19 107.81,116.13 2.23,8.59 1.88,17.82 3.39,26.64 0.56,3.34 3,6.37 4.59,9.54 2.64,-1.99 6.17,-3.44 7.77,-6.06 9.07,-14.89 13.3,-30.32 7.02,-47.93 -7.48,-20.98 -12.89,-42.7 -20.41,-63.66 -24.28,-67.71 -73.64,-110.16 -139.06,-135.82 -32.43,-12.72 -66.46,-18.3 -101.06,-19.18 -17.28,-0.44 -34.64,2.3 -51.98,3.33 -37.93,2.24 -75.64,5.79 -112.51,15.68 -51.33,13.76 -97.47,36.87 -135.33,74.84 -27.16,27.24 -41.83,59.53 -37.41,98.71 0.79,7.07 3,14.23 5.88,20.77 11.06,25.12 26.11,47.75 44.41,68.21 2.29,2.55 5.12,4.62 9.72,8.7"
         style="fill:#100f0d;fill-opacity:1;fill-rule:nonzero;stroke:none"
         id="path16" />
      <path
         d="m 2746.01,4801.23 c 3.42,-12.05 6.07,-22.31 9.26,-32.4 8.57,-27 16.28,-54.33 26.38,-80.76 9.96,-26.07 30.58,-39.71 58.43,-42.84 28.55,-3.21 55.51,12.95 63.28,40.49 10.62,37.59 19.59,75.64 29.91,113.32 3.42,12.5 8.56,24.56 13.39,36.63 1.92,4.79 4.77,9.31 7.81,13.51 10.74,14.77 17.43,14.96 29.02,0.71 8.42,-10.34 16.33,-21.1 24.67,-31.5 8.28,-10.35 18.58,-17.6 30.88,-23.17 13.03,-5.9 25.88,-13.32 36.79,-22.47 15.74,-13.2 18.35,-30.75 7.15,-47.57 -11.28,-16.94 -16.81,-33.61 -7.43,-52.84 10.62,-21.8 27.26,-36.89 51.25,-41.88 8.45,-1.75 18.59,-2.17 26.38,0.87 54.48,21.2 92.74,58.19 107.81,116.13 2.23,8.59 1.88,17.82 3.39,26.64 0.56,3.34 3,6.37 4.59,9.54 2.64,-1.99 6.17,-3.44 7.77,-6.06 9.07,-14.89 13.3,-30.32 7.02,-47.93 -7.48,-20.98 -12.89,-42.7 -20.41,-63.66 -24.28,-67.71 -73.64,-110.16 -139.06,-135.82 -32.43,-12.72 -66.46,-18.3 -101.06,-19.18 -17.28,-0.44 -34.64,2.3 -51.98,3.33 -37.93,2.24 -75.64,5.79 -112.51,15.68 -51.33,13.76 -97.47,36.87 -135.33,74.84 -27.16,27.24 -41.83,59.53 -37.41,98.71 0.79,7.07 3,14.23 5.88,20.77 11.06,25.12 26.11,47.75 44.41,68.21 2.29,2.55 5.12,4.62 9.72,8.7 z"
         style="fill:none;stroke:#100f0d;stroke-width:2.83465;stroke-linecap:butt;stroke-linejoin:miter;stroke-miterlimit:10;stroke-dasharray:none;stroke-opacity:1"
         id="path18" />
      <path
         d="m 3048.13,5239.11 c -7.38,15.9 -16.79,30.19 -31.15,40.05 -9.21,6.32 -19.23,11.68 -29.43,16.27 -24.26,10.92 -31.19,23.45 -24.76,49.58 2.73,11.06 7.42,21.64 11.99,34.64 11.68,-25.84 30.48,-39.58 53.35,-49.45 37.57,-16.21 46.7,-57.93 20,-91.09"
         style="fill:#100f0d;fill-opacity:1;fill-rule:nonzero;stroke:none"
         id="path20" />
      <path
         d="m 3048.13,5239.11 c -7.38,15.9 -16.79,30.19 -31.15,40.05 -9.21,6.32 -19.23,11.68 -29.43,16.27 -24.26,10.92 -31.19,23.45 -24.76,49.58 2.73,11.06 7.42,21.64 11.99,34.64 11.68,-25.84 30.48,-39.58 53.35,-49.45 37.57,-16.21 46.7,-57.93 20,-91.09 z"
         style="fill:none;stroke:#100f0d;stroke-width:2.83465;stroke-linecap:butt;stroke-linejoin:miter;stroke-miterlimit:10;stroke-dasharray:none;stroke-opacity:1"
         id="path22" />
      <path
         d="m 2771.18,4956.33 c -0.48,22.21 -8.57,40.91 -18.63,59.07 -8.47,15.29 -13.56,31.38 -9.01,49.12 0.27,1.06 0.83,2.06 2.16,5.3 5.07,-24.05 21.73,-37.18 37.23,-51.26 4.5,-4.09 8.8,-8.43 12.85,-12.95 8.49,-9.46 8.76,-12.5 0.45,-22.28 -7.64,-9.01 -16.05,-17.37 -25.05,-27"
         style="fill:#100f0d;fill-opacity:1;fill-rule:nonzero;stroke:none"
         id="path24" />
      <path
         d="m 2771.18,4956.33 c -0.48,22.21 -8.57,40.91 -18.63,59.07 -8.47,15.29 -13.56,31.38 -9.01,49.12 0.27,1.06 0.83,2.06 2.16,5.3 5.07,-24.05 21.73,-37.18 37.23,-51.26 4.5,-4.09 8.8,-8.43 12.85,-12.95 8.49,-9.46 8.76,-12.5 0.45,-22.28 -7.64,-9.01 -16.05,-17.37 -25.05,-27 z"
         style="fill:none;stroke:#100f0d;stroke-width:2.83465;stroke-linecap:butt;stroke-linejoin:miter;stroke-miterlimit:10;stroke-dasharray:none;stroke-opacity:1"
         id="path26" />
      <path
         d="m 2998.81,3476.24 c -86.22,0 -156.12,69.9 -156.12,156.12 0,86.21 69.9,156.1 156.12,156.1 86.21,0 156.11,-69.89 156.11,-156.1 0,-86.22 -69.9,-156.12 -156.11,-156.12 z m 379.12,974.71 h -773.12 c 0,0 -59.48,-488.22 -208.15,-846.26 0,0 401.43,-283.7 579.85,-908.14 l 624.44,996.14 c -148.68,267.62 -223.02,758.26 -223.02,758.26"
         style="fill:#100f0d;fill-opacity:1;fill-rule:nonzero;stroke:none"
         id="path28" />
    </g>
  </g>
</svg>
